<svg width="20" height="20" viewBox="0 0 20 20" fill="none" xmlns="http://www.w3.org/2000/svg">
<path d="M6.95613 2.95979C7.44622 2.86806 7.93757 3.11228 8.15144 3.55451C8.20468 3.63478 8.24745 3.72151 8.2784 3.81233C8.41424 5.90915 8.55857 7.97077 8.69441 10.0321C8.69136 10.2462 8.726 10.4597 8.795 10.6629C8.95764 11.0627 9.36177 11.3167 9.79988 11.2938L16.4561 10.867L16.5011 10.8846C16.7869 10.8893 17.0592 11.0053 17.2579 11.2069C17.4566 11.4085 17.5655 11.6794 17.5606 11.9598C17.2983 15.7819 14.4961 18.975 10.6827 19.7977C6.86932 20.6204 2.96035 18.875 1.08797 15.5135C0.53751 14.5455 0.189414 13.4794 0.0645298 12.3778C0.0161227 12.0514 -0.00515879 11.7212 0.00105321 11.3914C0.0136735 7.32724 2.90739 3.81939 6.95613 2.95979ZM10.9132 0.000804005C15.484 0.137634 19.3048 3.45562 19.9971 7.89045C20.0015 7.91692 20.0015 7.94407 19.9971 7.97053C20.012 8.18029 19.9409 8.38736 19.7999 8.54573C19.6588 8.70411 19.4591 8.80059 19.2452 8.81428L11.5655 9.32112C11.3116 9.34358 11.06 9.2597 10.8721 9.09065C10.6843 8.92152 10.5772 8.68262 10.5782 8.43244L10.0626 0.889476V0.764476C10.072 0.552549 10.1668 0.353047 10.3262 0.209788C10.4858 0.0665463 10.6971 -0.00871117 10.9132 0.000804005Z" fill="#F5F5F5"/>
</svg>
