<svg width="20" height="22" viewBox="0 0 20 22" fill="none" xmlns="http://www.w3.org/2000/svg">
<path d="M19.0996 13.6963L19.0898 13.8584C19.0698 14.0188 19.0205 14.1748 18.9424 14.3174H18.9414C18.8372 14.5075 18.6869 14.6688 18.5039 14.7852L18.4746 14.8027C17.1322 15.5725 15.5986 15.9451 14.0527 15.877C12.5068 15.8088 11.0117 15.3029 9.74219 14.418H9.74121C7.42984 12.9159 5.0415 13.2286 3.83105 13.5459V19.46C3.83095 19.7592 3.72701 20.0479 3.53906 20.2773L3.45312 20.3721C3.21113 20.6141 2.88231 20.75 2.54004 20.75C2.24077 20.7499 1.95215 20.646 1.72266 20.458L1.62793 20.3721C1.38604 20.1302 1.25012 19.802 1.25 19.46V3.1709L1.26367 2.98535C1.29082 2.80202 1.35772 2.62606 1.45996 2.46973L1.57324 2.32129C1.69601 2.18258 1.84765 2.07126 2.01855 1.99609V1.99707C2.32907 1.85741 6.50915 0.0736566 10.7568 2.57129L11.1738 2.83008L11.1934 2.84375C12.0569 3.45067 13.0749 3.80108 14.1289 3.85449C15.1828 3.90783 16.2301 3.66191 17.1504 3.14551V3.14648C17.3387 3.03585 17.5518 2.97374 17.7705 2.96777L17.9424 2.97461C18.0558 2.98666 18.1671 3.01348 18.2734 3.05469L18.4297 3.12793L18.5742 3.21973C18.6661 3.28752 18.7483 3.36758 18.8193 3.45703L18.917 3.59863L18.9951 3.75098C19.0627 3.90848 19.0982 4.07844 19.0996 4.25098V13.6963Z" stroke="#F5F5F5" stroke-width="1.5"/>
</svg>
