<svg width="24" height="24" viewBox="0 0 24 24" fill="none" xmlns="http://www.w3.org/2000/svg">
<path d="M21.0996 14.6963L21.0898 14.8584C21.0698 15.0188 21.0205 15.1748 20.9424 15.3174H20.9414C20.8372 15.5075 20.6869 15.6688 20.5039 15.7852L20.4746 15.8027C19.1322 16.5725 17.5986 16.9451 16.0527 16.877C14.5068 16.8088 13.0117 16.3029 11.7422 15.418H11.7412C9.42984 13.9159 7.0415 14.2286 5.83105 14.5459V20.46C5.83095 20.7592 5.72701 21.0479 5.53906 21.2773L5.45312 21.3721C5.21113 21.6141 4.88231 21.75 4.54004 21.75C4.24077 21.7499 3.95215 21.646 3.72266 21.458L3.62793 21.3721C3.38604 21.1302 3.25012 20.802 3.25 20.46V4.1709L3.26367 3.98535C3.29082 3.80202 3.35772 3.62606 3.45996 3.46973L3.57324 3.32129C3.69601 3.18258 3.84765 3.07126 4.01855 2.99609V2.99707C4.32907 2.85741 8.50915 1.07366 12.7568 3.57129L13.1738 3.83008L13.1934 3.84375C14.0569 4.45067 15.0749 4.80108 16.1289 4.85449C17.1828 4.90783 18.2301 4.66191 19.1504 4.14551V4.14648C19.3387 4.03585 19.5518 3.97374 19.7705 3.96777L19.9424 3.97461C20.0558 3.98666 20.1671 4.01348 20.2734 4.05469L20.4297 4.12793L20.5742 4.21973C20.6661 4.28752 20.7483 4.36758 20.8193 4.45703L20.917 4.59863L20.9951 4.75098C21.0627 4.90848 21.0982 5.07844 21.0996 5.25098V14.6963Z" stroke="#F5F5F5" stroke-width="1.5"/>
</svg>
